<svg xmlns="http://www.w3.org/2000/svg" xmlns:xlink="http://www.w3.org/1999/xlink" version="1.1" width="792" height="612" viewBox="0 0 792 612">
<defs>
<clipPath id="clip_0">
<path transform="matrix(1,0,0,-1,0,612)" d="M18 94.00001H774V519H18Z"/>
</clipPath>
<clipPath id="clip_1">
<path transform="matrix(1,0,0,-1,0,612)" d="M18 94.00001H774V519H18Z"/>
</clipPath>
</defs>
<g clip-path="url(#clip_0)">
<path transform="matrix(1,0,0,-1,0,612)" d="M18 519H774V94.00001H18Z" fill="#ffffff"/>
</g>
<g clip-path="url(#clip_1)">
<path transform="matrix(1,0,0,-1,0,612)" d="M18 519H774V94.00003H18Z" fill="#ffffff"/>
<path transform="matrix(.00006200787,0,0,.00006197142,295.8043,162.44782)" stroke-width="12700" stroke-linecap="butt" stroke-miterlimit="8" stroke-linejoin="miter" fill="none" stroke="#172c51" d="M0 54841.09C0 24553.19 24553.12 0 54840.92 0H7106904C7137192 0 7161745 24553.19 7161745 54841.09V987037.9C7161745 1017326 7137192 1041879 7106904 1041879H54840.92C24553.12 1041879 0 1017326 0 987037.9Z"/>
<text xml:space="preserve" transform="matrix(.24 0 -0 .2398589 396.6129 760.8191)" font-size="66.66667" font-family="TimesNewRomanPS" font-weight="bold"><tspan y="-2416" x="0 43.886674 76.70667 113.193347 142.28002 171.36669 193.12001 222.20668 258.69337 275.11338 322.66673 351.7534 377.1734 413.66007 446.48008 482.96675 508.38676 537.4734 553.8934 604.78 633.8667 670.3534 699.44009 728.52676 761.34677 783.1001 815.9201 843.8735 860.29348 904.1801 948.0668">Expected Response Generator LLM</tspan></text>
<text xml:space="preserve" transform="matrix(.24 0 -0 .2398589 314.9137 779.7791)" font-size="66.66667" font-family="TimesNewRomanPSMT"><tspan y="-2416" x="0 61.933343 94.733348 123.866687 141.93337 158.33338 176.40006 201.80005 218.20006 247.3334 280.13343 296.53343 325.66676 358.46678 391.26679 420.40013 449.53346 467.6001 496.73344 529.53347 545.9335 567.6668 596.8002 622.2002 655.0002 687.8002 720.60018 746.0002 775.13357 791.53359 809.6002 842.4002 871.53359 889.6002 906.00027 927.7336 956.86697 978.6003 996.66696 1025.8003 1054.9336 1073.0003 1089.4002 1107.4668 1140.2669 1158.3335 1191.1336 1215.3335 1233.4668 1258.8668 1275.2667 1304.4 1326.1333 1344.2 1362.2666 1380.3333 1409.4666 1438.5999 1456.6665 1473.0664 1491.133 1523.9331 1541.9998 1574.7998 1607.5999 1625.6665 1658.4666 1691.2666">What is an expected response that reflect tutor&#x2019;s critical thinking </tspan></text>
<text xml:space="preserve" transform="matrix(.24 0 -0 .2398589 443.9692 798.73916)" font-size="66.66667" font-family="TimesNewRomanPSMT"><tspan y="-2416" x="0 29.120005 61.906679 79.960018 98.01335 116.06669 134.12003 166.9067 183.29335 201.34668 234.13335 250.52 268.57334 301.36 319.41334 344.86668 361.25337 386.7067 404.76005 422.8134 455.60005 484.72004 502.77339 520.8267 553.6134 586.4001">ability in this situation?</tspan></text>
<path transform="matrix(1,0,0,-1,0,612)" d="M30.91016 399.149C30.91016 402.1261 33.325 404.5395 36.30386 404.5395H133.3668C136.3456 404.5395 138.7605 402.1261 138.7605 399.149V377.5875C138.7605 374.6104 136.3456 372.197 133.3668 372.197H36.30386C33.325 372.197 30.91016 374.6104 30.91016 377.5875Z" fill="#c3d9ff" fill-rule="evenodd"/>
<text xml:space="preserve" transform="matrix(.24 0 -0 .2398589 46.05094 808.5791)" font-size="58.33334" font-family="TimesNewRomanPSMT"><tspan y="-2416" x="0 32.812509 52.50001 82.04585 111.59169 128.01253 154.23337 200.17089 214.95839 237.91255 254.33339 280.55424 296.97508">Problem state</tspan></text>
<path transform="matrix(1,0,0,-1,0,612)" d="M30.80332 359.437C30.80332 362.9845 33.68079 365.8603 37.23033 365.8603H208.4884C212.0379 365.8603 214.9154 362.9845 214.9154 359.437V339.941C214.9154 336.3936 212.0379 333.5178 208.4884 333.5178H37.23033C33.68079 333.5178 30.80332 336.3936 30.80332 339.941Z" fill="#97b8ee" fill-rule="evenodd"/>
<text xml:space="preserve" transform="matrix(.24 0 -0 .2398589 47.45622 847.2191)" font-size="58.33334" font-family="TimesNewRomanPSMT"><tspan y="-2416" x="0 32.812509 62.358346 78.779178 108.32501 124.74585 141.16669 170.71253 200.25836 215.04586 238.00002 254.42086 280.6417 310.18754 324.97505 351.1959 367.61674 382.40425 411.95008 428.3709 451.32508 477.54594 507.09178 530.04598 553.0002 569.421 598.96688">Solution step at discussion</tspan></text>
<path transform="matrix(1,0,0,-1,0,612)" d="M29.66132 281.9633C29.66132 284.8898 32.03509 287.2622 34.96329 287.2622H217.7657C220.6939 287.2622 223.0677 284.8898 223.0677 281.9633V260.768C223.0677 257.8415 220.6939 255.4692 217.7657 255.4692H34.96329C32.03509 255.4692 29.66132 257.8415 29.66132 260.768Z" fill="#7a99da" fill-rule="evenodd"/>
<text xml:space="preserve" transform="matrix(.24 0 -0 .2398589 36.98321 925.4591)" font-size="58.33334" font-family="TimesNewRomanPSMT"><tspan y="-2416" x="0 39.375009 68.89168 88.55002 108.20836 134.45836 160.70836 177.10002 206.61669 232.86669 255.85002 278.83338 293.5917 323.10838 342.7667 357.52503 373.91673 403.43339 429.68339 444.4417 467.42506 496.9417 513.3334 542.8501 559.24179 575.6334 605.15017 634.6669 649.4252 672.4085 688.8002 715.05026">Correctness of the solution step</tspan></text>
<path transform="matrix(1,0,0,-1,0,612)" d="M30.74466 321.2063C30.74466 324.1933 33.16749 326.6147 36.15619 326.6147H124.9828C127.9715 326.6147 130.3943 324.1933 130.3943 321.2063V299.5736C130.3943 296.5866 127.9715 294.1652 124.9828 294.1652H36.15619C33.16749 294.1652 30.74466 296.5866 30.74466 299.5736Z" fill="#738fbf" fill-rule="evenodd"/>
<text xml:space="preserve" transform="matrix(.24 0 -0 .2398589 39.02885 886.3391)" font-size="58.33334" font-family="TimesNewRomanPSMT"><tspan y="-2416" x="0 32.812509 62.358346 88.57918 114.80002 131.22086 146.00835 175.55419 205.10002 231.32086 254.27503 270.69587 287.1167 316.66255">Focal question</tspan></text>
<path transform="matrix(.00006200787,0,0,.00006197142,297.8127,260.5568)" stroke-width="12700" stroke-linecap="butt" stroke-miterlimit="8" stroke-linejoin="miter" fill="none" stroke="#172c51" d="M0 55539.33C0 24865.81 24865.74 0 55539.19 0H5358644C5389317 0 5414183 24865.81 5414183 55539.33V999506.7C5414183 1030180 5389317 1055046 5358644 1055046H55539.19C24865.74 1055046 0 1030180 0 999506.7Z"/>
<text xml:space="preserve" transform="matrix(.24 0 -0 .2398589 379.6826 859.2191)" font-size="66.66667" font-family="TimesNewRomanPS" font-weight="bold"><tspan y="-2416" x="0 47.580007 65.62668 83.67335 116.52002 153.03336 207.61338 236.72672 273.24006 294.9534 311.3334 358.91343 388.02677 409.7401 438.85346 467.9668 489.68016 522.5268 550.4401 566.8201 610.73348 654.6468">Alignment Detector LLM</tspan></text>
<text xml:space="preserve" transform="matrix(.24 0 -0 .2398589 313.4893 878.1791)" font-size="66.66667" font-family="TimesNewRomanPSMT"><tspan y="-2416" x="0 47.580007 80.426677 128.00669 144.38669 173.50003 191.5467 209.59337 242.44004 275.2867 304.40007 337.24674 353.62675 382.74009 404.45344 433.56678 449.94679 467.99348 500.84016 529.9535 546.3335 564.3801 597.2268 615.27346 648.1201 669.83346 686.21347 707.92678 737.0401 762.48678 795.33346 828.1801 861.0268 886.47348 915.5868 941.03347 957.41348 982.8601 1015.7068 1032.0868 1053.8 1082.9133 1104.6267 1121.0067 1139.0534 1171.9 1188.28 1206.3267 1239.1734 1268.2866">How aligned are the tutor responses so far in the </tspan></text>
<text xml:space="preserve" transform="matrix(.24 0 -0 .2398589 311.3236 897.1391)" font-size="66.66667" font-family="TimesNewRomanPSMT"><tspan y="-2416" x="0 29.120005 61.906679 94.693347 127.48001 156.60002 178.32003 203.77336 232.89337 250.94672 269.00007 301.7867 334.57337 350.96006 383.7467 401.80006 427.2534 445.30674 478.09339 499.8134 532.6001 548.98678 596.5734 614.6268 632.6801 665.4668 681.85348 699.9068 732.6935 761.8135 778.20016 807.3201 840.1068 872.8935 902.0135 931.1335 949.1868 978.3068 1011.0935 1027.4801 1049.2001 1078.3201 1103.7734 1136.5602 1169.3469 1202.1337 1227.587 1256.707">conversation history with the expected response?</tspan></text>
<path transform="matrix(1,0,0,-1,0,612)" d="M467.0981 282.0773V275.781H465.5231V282.0773ZM467.0981 271.0588V265.5639H465.5231V271.0588ZM468.6731 266.3509 466.3106 261.6287 463.9481 266.3509Z" fill="#ffc000"/>
<path transform="matrix(.00006200787,0,0,.00006197142,295.8043,354.2975)" stroke-width="12700" stroke-linecap="butt" stroke-miterlimit="8" stroke-linejoin="miter" fill="none" stroke="#172c51" d="M0 51528.18C0 23069.95 23069.86 0 51527.98 0H7110227C7138685 0 7161755 23069.95 7161755 51528.18V927389.8C7161755 955848 7138685 978918 7110227 978918H51527.98C23069.86 978918 0 955848 0 927389.8Z"/>
<text xml:space="preserve" transform="matrix(.24 0 -0 .2398589 322.9564 960.0191)" font-size="66.66667" font-family="TimesNewRomanPS" font-weight="bold"><tspan y="-2416" x="0 43.886674 76.70667 113.193347 142.28002 171.36669 193.12001 225.94002 247.69335 265.71336 298.53337 335.02003 350.24003 388.1267 420.94673 438.96675 456.98677 489.80677 517.76016 546.8468 583.3335 599.7535 639.97348 672.79348 690.8134 708.8334 741.6534">Expectation Tailored Follow</tspan></text>
<text xml:space="preserve" transform="matrix(.24 0 -0 .2398589 512.4053 960.0191)" font-size="66.66667" font-family="TimesNewRomanPS" font-weight="bold"><tspan y="-2416" x="0">-</tspan></text>
<text xml:space="preserve" transform="matrix(.24 0 -0 .2398589 517.6225 960.0191)" font-size="66.66667" font-family="TimesNewRomanPS" font-weight="bold"><tspan y="-2416" x="0 36.50667 73.01334">up </tspan></text>
<text xml:space="preserve" transform="matrix(.24 0 -0 .2398589 539.0819 960.0191)" font-size="66.66667" font-family="TimesNewRomanPS" font-weight="bold"><tspan y="-2416" x="0 50.86001 87.38668 116.51335 141.97336 163.70003 181.76004 214.55336 251.08003 267.47337 318.33338 347.46003 383.9867 413.11335 442.24 475.03334 496.75999 529.55337 557.48 573.8733 617.73336 661.5934">Question Generator LLM</tspan></text>
<text xml:space="preserve" transform="matrix(.24 0 -0 .2398589 307.5844 978.9791)" font-size="66.66667" font-family="TimesNewRomanPSMT"><tspan y="-2416" x="0 61.933343 94.733348 123.866687 141.93337 158.33338 180.06671 212.86672 230.9334 249.00008 281.80009">What follow</tspan></text>
<text xml:space="preserve" transform="matrix(.24 0 -0 .2398589 386.6297 978.9791)" font-size="66.66667" font-family="TimesNewRomanPSMT"><tspan y="-2416" x="0">-</tspan></text>
<text xml:space="preserve" transform="matrix(.24 0 -0 .2398589 391.8469 978.9791)" font-size="66.66667" font-family="TimesNewRomanPSMT"><tspan y="-2416" x="0 32.813337 65.62667 82.04001 114.85335 147.66669 176.81336 202.22669 220.30669 238.38669 271.2 304.01335 320.42668 349.57337 378.72007 411.5334 427.94673 460.76005 489.90675 506.32008 535.46676 560.88009 593.6934 622.8401 655.65347 672.0668 690.1467 722.9601 739.3734 757.45339 786.60006 804.68008 822.76 855.57339 877.32 893.73336 922.88 955.69338 988.5067 1017.6534 1046.8 1064.88 1094.0266 1126.84 1143.2533 1165 1194.1466 1219.5599 1252.3733 1285.1867 1318 1343.4133 1372.5599">up question can be asked to tailor expected response?</tspan></text>
<path transform="matrix(1,0,0,-1,0,612)" d="M728.0269 384.9855V257.4485H726.4519V384.9855ZM729.6019 258.2356 727.2394 253.5133 724.8769 258.2356Z" fill="#92d050"/>
<path transform="matrix(1,0,0,-1,0,612)" d="M666.7933 314.7943V308.498H665.2183V314.7943ZM666.7933 303.7758V301.2231H665.2183V303.7758ZM668.3683 302.0101 666.0058 297.2879 663.6433 302.0101Z" fill="#ffc000"/>
<text fill="#c55a11" xml:space="preserve" transform="matrix(.24 0 -0 .2398589 438.4471 1021.6991)" font-size="58.33334" font-family="TimesNewRomanPS" font-weight="bold"><tspan y="-2416" x="0 36.09667 65.60167 81.981678 98.36168 127.866687">Follow</tspan></text>
<text fill="#c55a11" xml:space="preserve" transform="matrix(.24 0 -0 .2398589 479.3971 1021.6991)" font-size="58.33334" font-family="TimesNewRomanPS" font-weight="bold"><tspan y="-2416" x="0">-</tspan></text>
<text fill="#c55a11" xml:space="preserve" transform="matrix(.24 0 -0 .2398589 484.1221 1021.6991)" font-size="58.33334" font-family="TimesNewRomanPS" font-weight="bold"><tspan y="-2416" x="0 32.812509 65.625019 80.41251 113.22502 146.03754 172.25838 195.21254 214.90004 231.32088 260.8667">up question</tspan></text>
<text fill="#ffd966" xml:space="preserve" transform="matrix(.24 0 -0 .2398589 639.6098 869.2991)" font-size="58.33334" font-family="TimesNewRomanPS" font-weight="bold"><tspan y="-2416" x="0 42.659177 72.193347 86.96918 116.50334 132.9125 149.32167 178.85584 211.65668 260.90754 287.17506 319.9759">No alignment</tspan></text>
<text fill="#ffd966" xml:space="preserve" transform="matrix(.24 0 -0 .2398589 337.2064 920.1791)" font-size="58.33334" font-family="TimesNewRomanPS" font-weight="bold"><tspan y="-2416" x="0 42.659177 72.193347 121.44418 154.24503 170.65419 196.92169 216.59752 242.86502 259.2742 288.80839 303.5842 333.11839 349.52757 365.93675 395.47093 428.27177 454.53929 487.34013 502.11595 531.65017 556.8093 571.5852 614.2444 647.0452 676.5794 709.38027 725.7894 752.05697 766.8328 786.50869 816.04287 830.8187 863.61959 889.8871 916.1546 932.5638 965.3646">Completely aligned or Unable to decide</tspan></text>
<text xml:space="preserve" transform="matrix(.24 0 -0 .2398589 643.5463 906.2591)" font-size="58.33334" font-family="TimesNewRomanPSMT"><tspan y="-2416" x="0 39.375009 68.89168 98.40835 127.92502 154.17502 173.83335 196.81668 223.06668 239.45835 255.85002 285.3667 314.88337">Conversation </tspan></text>
<text xml:space="preserve" transform="matrix(.24 0 -0 .2398589 655.162 923.2991)" font-size="58.33334" font-family="TimesNewRomanPSMT"><tspan y="-2416" x="0 16.40917 45.94334 65.61918 95.15335 109.929187 136.1967 165.73088 195.26506">turn ends</tspan></text>
<path transform="matrix(.00006200787,0,0,.00006197142,633.5347,294.1519)" stroke-width="25400" stroke-linecap="butt" stroke-dasharray="101600,76200" stroke-miterlimit="8" stroke-linejoin="miter" fill="none" stroke="#ffc000" d="M0 0 531605 1"/>
<path transform="matrix(1,0,0,-1,0,612)" d="M502.7044 190.7868V182.4557H501.1294V190.7867ZM504.2794 183.2427 501.917 178.5205 499.5544 183.2427Z" fill="#c55a11"/>
<path transform="matrix(1,0,0,-1,0,612)" d="M30.15925 243.0063C30.15925 245.9329 32.53309 248.3053 35.46137 248.3053H223.1256C226.0539 248.3053 228.4277 245.9329 228.4277 243.0063V221.8113C228.4277 218.8848 226.0539 216.5123 223.1256 216.5123H35.46137C32.53309 216.5123 30.15925 218.8848 30.15925 221.8113Z" fill="#5f77a9" fill-rule="evenodd"/>
<text xml:space="preserve" transform="matrix(.24 0 -0 .2398589 70.03409 964.3391)" font-size="58.33334" font-family="TimesNewRomanPSMT"><tspan y="-2416" x="0 39.375009 68.89168 98.40835 127.92502 154.17502 173.83335 196.81668 223.06668 239.45835 255.85002 285.3667 314.88337 329.6417 359.15837 375.55006 398.5334 414.92509 444.44175 464.10008">Conversation history</tspan></text>
<text xml:space="preserve" transform="matrix(.24 0 -0 .2398589 19.40404 810.0191)" font-size="79.16667" font-family="TimesNewRomanPS" font-weight="bold"><tspan y="-2416" x="0">1</tspan></text>
<text xml:space="preserve" transform="matrix(.24 0 -0 .2398589 19.31147 849.1391)" font-size="79.16667" font-family="TimesNewRomanPS" font-weight="bold"><tspan y="-2416" x="0">2</tspan></text>
<text xml:space="preserve" transform="matrix(.24 0 -0 .2398589 20.10659 889.6991)" font-size="79.16667" font-family="TimesNewRomanPS" font-weight="bold"><tspan y="-2416" x="0">3</tspan></text>
<text xml:space="preserve" transform="matrix(.24 0 -0 .2398589 18.5954 927.3791)" font-size="79.16667" font-family="TimesNewRomanPS" font-weight="bold"><tspan y="-2416" x="0">4</tspan></text>
<text xml:space="preserve" transform="matrix(.24 0 -0 .2398589 18.5954 965.2991)" font-size="79.16667" font-family="TimesNewRomanPS" font-weight="bold"><tspan y="-2416" x="0">5</tspan></text>
<path transform="matrix(1,0,0,-1,0,612)" d="M244.2447 433.8558H294.5905V410.9678H244.2447Z" fill="#ffffff"/>
<path transform="matrix(.00006200787,0,0,.00006197142,244.2447,178.1442)" stroke-width="12700" stroke-linecap="butt" stroke-miterlimit="8" stroke-linejoin="miter" fill="none" stroke="#ffffff" d="M0 0H811927V369332H0Z"/>
<text xml:space="preserve" transform="matrix(.24 0 -0 .2398589 249.9147 774.2591)" font-size="58.33334" font-family="TimesNewRomanPSMT"><tspan y="-2416" x="0 29.534169 44.310007 73.84418 88.62001 118.154178 132.93001">1,2,3,4</tspan></text>
<path transform="matrix(.00006200787,0,0,.00006197142,268.6075,279.8725)" stroke-width="12700" stroke-linecap="butt" stroke-miterlimit="8" stroke-linejoin="miter" fill="none" stroke="#ffffff" d="M0 0H332620V369332H0Z"/>
<text xml:space="preserve" transform="matrix(.24 0 -0 .2398589 274.2775 876.0191)" font-size="58.33334" font-family="TimesNewRomanPSMT"><tspan y="-2416" x="0">5</tspan></text>
<path transform="matrix(.00006200787,0,0,.00006197142,258.4938,372.43513)" stroke-width="12700" stroke-linecap="butt" stroke-miterlimit="8" stroke-linejoin="miter" fill="none" stroke="#ffffff" d="M0 0H811927V369332H0Z"/>
<text xml:space="preserve" transform="matrix(.24 0 -0 .2398589 264.1638 968.41909)" font-size="58.33334" font-family="TimesNewRomanPSMT"><tspan y="-2416" x="0 29.534169 44.310007 73.84418 88.62001">1,2,5</tspan></text>
<path transform="matrix(.00006200787,0,0,.00006197142,27.27241,151.4682)" stroke-width="12700" stroke-linecap="butt" stroke-miterlimit="8" stroke-linejoin="miter" fill="none" stroke="#ffffff" d="M0 0H3244029V707886H0Z"/>
<text xml:space="preserve" transform="matrix(.24 0 -0 .2398589 32.94241 748.5791)" font-size="66.66667" font-family="TimesNewRomanPSMT"><tspan y="-2416" x="0 21.740002 54.546674 87.35335 120.16002 138.23336 163.64003 180.04669 201.7867 223.5267 256.33335 307.2067 323.61338 341.6867 370.82673 399.96675 421.70674 454.5134 472.58674 505.3934">Inputs from learning</tspan></text>
<text xml:space="preserve" transform="matrix(.24 0 -0 .2398589 162.0924 748.5791)" font-size="66.66667" font-family="TimesNewRomanPSMT"><tspan y="-2416" x="0">-</tspan></text>
<text xml:space="preserve" transform="matrix(.24 0 -0 .2398589 167.3096 748.5791)" font-size="66.66667" font-family="TimesNewRomanPSMT"><tspan y="-2416" x="0 32.813337">by</tspan></text>
<text xml:space="preserve" transform="matrix(.24 0 -0 .2398589 183.0596 748.5791)" font-size="66.66667" font-family="TimesNewRomanPSMT"><tspan y="-2416" x="0">-</tspan></text>
<text xml:space="preserve" transform="matrix(.24 0 -0 .2398589 32.94241 767.53909)" font-size="66.66667" font-family="TimesNewRomanPSMT"><tspan y="-2416" x="0 18.04667 47.16001 76.273349 105.38669 138.16669 156.21337 188.99337 221.77336 238.15337 267.2667 300.0467 332.8267 350.87336 372.5867 405.3667 438.1467 488.99339 518.1067 550.8867">teaching environment</tspan></text>
<path transform="matrix(1,0,0,-1,0,612)" d="M689.8503 380.4203H789.7304V340.3662H689.8503Z" fill="#ffffff"/>
<text fill="#92d050" xml:space="preserve" transform="matrix(.24 0 -0 .2398589 711.8341 827.7791)" font-size="58.33334" font-family="TimesNewRomanPS" font-weight="bold"><tspan y="-2416" x="0 39.375009 68.89168 101.67502 127.92502 154.17502 173.83335 200.08335 232.86669">Expected </tspan></text>
<text fill="#92d050" xml:space="preserve" transform="matrix(.24 0 -0 .2398589 711.4404 844.8191)" font-size="58.33334" font-family="TimesNewRomanPS" font-weight="bold"><tspan y="-2416" x="0 42.659177 68.92668 91.86919 124.67003 154.2042 187.00504 209.94754">Response</tspan></text>
<path transform="matrix(1,0,0,-1,0,612)" d="M727.0147 384.1803 637.0839 357.4264 637.5332 355.9178 727.464 382.6717ZM637.3893 359.1596 633.5347 355.5494 638.7373 354.6337Z" fill="#92d050"/>
<path transform="matrix(.00006200787,0,0,.00006197142,235.6122,199.6011)" stroke-width="12700" stroke-linecap="butt" stroke-miterlimit="8" stroke-linejoin="miter" fill="none" stroke="#000000" d="M0 0C68831.25 0 124630 37958.14 124630 84781.88V1561980C124630 1608804 180428.7 1646762 249260 1646762 180428.7 1646762 124630 1684720 124630 1731544V3158923C124630 3205747 68831.25 3243705 0 3243705"/>
<path transform="matrix(1,0,0,-1,0,612)" d="M244.6532 407.9386 290.653 407.9385V406.9547L244.6532 406.9548ZM289.8655 409.8077 294.5905 407.4466 289.8655 405.0855Z"/>
<path transform="matrix(1,0,0,-1,0,612)" d="M251.0689 310.9377 291.8674 310.8868 291.8662 309.903 251.0677 309.9539ZM291.0822 312.757 295.8043 310.39 291.0763 308.0348Z"/>
<path transform="matrix(1,0,0,-1,0,612)" d="M243.3312 217.6493 294.0527 217.6492V216.6654L243.3312 216.6655ZM293.2652 219.5184 297.9902 217.1573 293.2652 214.7962Z"/>
</g>
</svg>
